Patient4_TMGait_0pt7_01_right_14_EMG.mot
version=1
nRows=40
nColumns=33
inDegrees=no
endheader
time	1LAddLong	2LGlutMax	3LGlutMed	4LIliopsoas	5LSemiMemb	6LBicFemLong	7LRecFem	8LVastMed	9LVastLat	10LGasMed	11LTibAnt	12lTibPost	13LPeroneusLong	14LSol	15LExtDigLong	16LFlexDigLong	17RAddLong	18RGlutMax	19RGlutMed	20RIliopsoas	21RSemiMemb	22RBicFemLong	23RRecFem	24RVastMed	25RVastLat	26RGasMed	27RTibAnt	28RTibPost	29RPeroneusLong	30RSol	31RExtDigLong	32RFlexDigLong
16.69	0.006561	0.074005	0.13031	-0.012207	-0.032349	-0.045471	0.085297	0.013733	0.10117	0.032806	-0.041199	0.007935	0.18249	0.11505	-0.14282	-0.00946	-0.081329	-0.091705	-0.83786	-0.064392	-0.083923	-0.2948	-0.13962	-0.044708	0.007629	0.000305	0.019379	-0.005188	-0.28198	-0.04837	0.000916	-0.002747
16.691	0.010376	0.094604	0.13992	-0.009613	0.030365	0.006866	0.11047	0.012054	0.079041	-0.001373	-0.10757	0.007019	0.2652	0.13123	0.24017	0.000916	-0.070496	-0.090637	-0.92316	-0.031891	0.036163	-0.26657	-0.046692	-0.052795	0.010223	-0.018005	0.19424	-0.009766	-0.12299	-0.097504	0.004272	-0.007477
16.692	0.013428	0.10483	0.13763	-0.015869	0.007019	-0.013123	0.1178	0.003967	0.07019	-0.003815	0.045013	0.001068	-0.034943	0.11414	0.15274	-0.007324	-0.058746	-0.055847	-0.14038	-0.071106	0.093079	-0.2301	-0.010071	-0.049133	-0.006104	-0.019989	0.31174	-0.006714	0.028534	-0.090179	0.003204	0.000153
16.693	0.027161	0.11261	0.1062	0.004883	0.044098	-0.004272	0.13641	0.005646	0.056305	-0.002136	0.19287	0.002289	-0.28336	0.089874	-0.11292	-0.007629	-0.076904	-0.026703	1.1832	-0.14938	-0.07019	-0.21194	0.046234	-0.035858	0.001373	-0.031128	0.24704	-0.006866	0.12405	-0.052338	0.003357	-0.004272
16.694	0.003052	0.11993	0.07431	0.003052	0.052338	-0.03067	0.14252	-0.001221	0.042725	-0.024414	0.1413	0.006561	-0.00412	0.005493	-0.071564	-0.005188	-0.049133	-0.086212	1.7477	-0.076294	-0.16083	-0.18158	0.077057	-0.040283	0.011749	-0.021973	0.087433	-0.004272	0.072632	-0.050812	0.000153	-0.004883
16.695	0.014648	0.10895	0.041656	0.021667	0.057831	-0.051575	0.14801	0.00351	0.032806	-0.008087	0.09613	0.003204	0.54001	-0.13229	-0.31677	-0.002441	-0.047913	-0.20447	0.49774	-0.010681	-0.19211	-0.13916	0.030365	0.003357	-0.008392	-0.018463	-0.16495	-0.010071	0.026855	-0.054626	0.003052	-0.01358
16.696	0.014038	0.10147	0.039825	0.020447	0.063934	-0.094604	0.1532	0.003967	0.018921	-0.044556	-0.065613	0.004883	0.19592	-0.049133	-0.003967	0.001068	0.006561	-0.22903	-0.16892	0.007629	-0.033875	-0.037231	0.088043	-0.053101	-0.012512	-0.014648	-0.081482	-0.00351	0.017242	-0.056305	-0.001221	-0.002594
16.697	0.007172	0.12085	0.075989	-0.001984	0.037842	-0.036621	0.17105	0.003815	0.05127	-0.059357	-0.10269	-0.003662	-0.31281	0.027618	-0.17822	-0.003662	0.018005	-0.1622	-0.20645	-0.034637	0.06485	-0.094147	0.004578	-0.014648	0.005798	0.007324	-0.18585	-0.011292	0.12207	-0.082245	-0.005188	0.005341
16.698	0.014801	0.096893	0.083008	-0.009918	0.036926	0.054016	0.15701	0.001984	0.058594	-0.045929	-0.10971	0.001373	-0.23895	0.002747	-0.26169	-0.007477	0.011292	-0.12863	0.23285	0.033722	0.001373	-0.10941	-0.044708	-0.041656	-0.005798	-0.009308	-0.43671	-0.003204	0.112	-0.074615	0.001984	-0.001221
16.699	0.004883	0.095367	0.043488	-0.011597	0.028076	0.15869	0.11627	0.011749	0.076599	-0.065308	-0.075836	0.010834	-0.31021	-0.003204	-0.06958	-0.006714	0.014038	-0.20065	0.2478	0.075073	-0.020905	-0.084839	-0.049591	-0.057831	-0.010376	-0.019531	-0.35126	-0.005035	0.073547	-0.048676	0.002441	-0.007019
16.7	0.010071	0.066986	0.053101	0.010071	0.001984	0.14252	0.11841	0.027008	0.020294	-0.046387	-0.037689	0.006409	0.003815	-0.010986	0.073547	-0.015869	0.039825	-0.18341	0.23789	0.10376	-0.028076	-0.086212	-0.027618	-0.10803	-0.007629	-0.016632	-0.27069	-0.00473	0.11963	-0.096893	0.000153	0.000305
16.701	0.000153	0.074768	0.057831	-0.012207	-0.008545	0.10773	0.13641	0.017853	0.026245	0.011444	0.001984	0.00351	-0.080109	0.076294	0.14969	-0.016022	0.07309	-0.21362	-0.00412	0.010529	-0.012512	-0.09491	0.019379	-0.086975	-0.014496	-0.018921	-0.13229	-0.005951	0.10269	-0.04776	-0.001373	0.009308
16.702	-0.005798	0.11978	0.023804	-0.002747	-0.016479	0.058289	0.22354	0.00885	0.023499	0.032806	0.013733	0.000916	-0.15305	0.032043	0.15076	0.001984	0.085144	-0.18158	-0.06424	0.03067	-0.025482	-0.16373	0.004425	-0.12344	-0.01236	-0.027466	0.12131	-0.012207	0.043335	0.013733	0	0.011444
16.703	0.011902	0.13199	0.025482	0.00473	0.016937	0.059814	0.19211	0.012665	0.017242	0.087128	0.000153	0.009155	-0.016479	-0.046844	0.10666	-0.009003	0.066071	-0.18601	0.025024	0.066833	0.003967	-0.2478	-0.0383	-0.16052	0.007935	-0.032959	0.25238	-0.007782	0	0.036926	0.000153	0.00061
16.704	0.010071	0.14862	0.037689	0.003815	0.066071	0.026245	0.15015	0.016327	0.046997	0.10223	0.000305	0.01358	-0.022583	0.069275	0.10391	-0.00885	0.0177	-0.061798	0.14496	0.075073	-0.12833	-0.1831	-0.018158	-0.13199	0.0177	-0.031738	0.30212	-0.011444	0.045471	0.021667	-0.001678	-0.00351
16.705	0.012512	0.19119	0.086212	0.022888	0.03418	0.031128	0.21454	0.018005	-0.026398	0.086975	-0.014648	0.014954	0.021057	0.13382	0.074768	-0.00412	-0.045624	-0.047913	0.048828	0.066528	-0.14221	-0.074921	-0.016327	0.057373	0.016022	-0.03479	0.22903	-0.008087	0.022888	0.050354	-0.00061	-0.027618
16.706	0.014191	0.13168	-0.019684	0.019073	0.010071	0.052032	0.29129	0.041962	-0.071564	0.15717	-0.033875	-0.000763	0.14694	0.061188	0.019836	0.000153	-0.041962	-0.14221	-0.080414	0.058594	-0.054474	-0.041809	-0.029144	0.075378	0.030518	-0.036011	0.075378	-0.007019	0.051575	0.029602	0.000763	-0.041656
16.707	0.00351	0.14481	-0.14847	-0.005646	0.014496	-0.019226	0.29816	0.040131	-0.048828	0.22934	-0.051575	0.007172	-0.23773	0.094147	0.056458	0.006256	-0.023499	-0.15045	-0.11002	-0.028992	-0.23605	-0.1059	-0.034943	0.026245	0.001678	-0.043488	-0.18494	-0.00946	0.028687	0.015411	0.002289	-0.033264
16.708	0.011597	0.16235	-0.17685	0.008087	0.016174	-0.079193	0.21591	0.015106	0.020752	0.2594	-0.020447	0.014954	-0.008087	0.045929	0.077209	-0.007629	-0.013428	-0.1329	-0.010986	-0.049591	-0.10742	-0.21835	0.043793	-0.070343	-0.006104	-0.052795	-0.16647	-0.00946	0.000458	0.013123	-0.006104	-0.028687
16.709	0.021973	0.15488	-0.075531	0.017853	0.029297	-0.090027	0.13031	0.005188	0.054626	0.22659	0.039368	0.005341	0.092316	0.001526	0.18539	-0.011597	-0.003357	-0.090027	-0.046844	0.006561	-0.15945	-0.10727	0.075989	-0.068054	-0.0177	-0.061646	0.019836	-0.005951	-0.010376	-0.006409	0.001984	-0.024872
16.71	0.014343	0.21744	0.18341	0.016022	0.014496	-0.056305	0.10284	-0.007782	0.22293	0.11704	0.14664	0.003967	-0.19745	0.017548	0.18845	-0.000153	0.004272	-0.085144	-0.12192	0.009308	-0.19363	0.035248	0.046082	-0.10727	-0.023193	-0.086975	0.035248	-0.006409	-0.015259	0.009155	0.000763	-0.030975
16.711	0.014496	0.20767	0.10071	0.017548	0.015717	-0.044708	0.13962	-0.012512	0.19119	-0.079803	0.19455	0.014191	-0.033722	0.1471	-0.065613	-0.009613	0.005951	-0.11795	-0.19806	0.018921	-0.25299	0.27512	0.020905	-0.037994	0.015106	-0.10056	0.095673	-0.013885	0.049591	-0.004578	0.002441	-0.026855
16.712	0.009155	0.21362	-0.024109	0.02594	0.010986	-0.029144	0.14587	-0.016632	0.11856	-0.085449	0.19531	0.016022	-0.11612	0.16022	-0.07309	-0.013275	0.082703	-0.10681	-0.18188	-0.020142	0.036011	0.26566	-0.022888	-0.001984	0.037689	-0.11871	0.10773	-0.009766	0.070038	-0.013123	0.001221	-0.02594
16.713	0.00824	0.22522	0.049591	-0.007935	-0.01709	-0.010834	0.1532	-0.013123	-0.049744	-0.019989	0.10422	0.005493	0.067444	0.13534	0.031586	-0.012665	0.088959	-0.1178	-0.22186	-0.017548	0.23224	0.15335	-0.020752	0.005646	0.037689	-0.12116	0.071716	-0.012512	0.095367	-0.009003	-0.00061	-0.014801
16.714	0.00351	0.23056	0.21057	-0.028076	-0.025177	0.009155	0.14481	0.005493	-0.099182	-0.036011	-0.1326	0.010223	0.27741	0.21118	-0.04715	-0.007629	0.083466	-0.062103	-0.30502	-0.12634	0.14465	-0.018005	0.006714	-0.088348	0.006409	-0.075073	0.066986	-0.012665	0.018616	0.020905	-0.001221	-0.010223
16.715	0.000458	0.22018	0.1857	-0.002441	-0.023651	-0.011902	0.17975	0.014648	-0.024719	-0.0354	-0.16113	0.013275	0.23148	0.19943	-0.47119	-0.006104	0.06485	-0.084229	-0.43579	-0.1648	0.025024	-0.11322	0.036163	-0.072937	0.011139	-0.004425	0.11581	-0.012817	0.020447	-0.000305	0	-0.004272
16.716	0.005493	0.24078	0.006104	0.021362	-0.006714	-0.041962	0.20096	0.023499	-0.038147	0.010529	-0.14587	0.008698	0.81802	0.021973	-0.16022	-0.022583	0.035248	-0.095825	-0.40924	-0.1236	-0.062103	-0.056763	0.057373	-0.11002	0.021973	0.070038	0.084991	-0.00885	0.30563	-0.027161	0.001373	-0.002899
16.717	0.005951	0.24292	-0.000916	0.02533	0.025635	-0.032349	0.28427	0.009155	0.011902	-0.002441	-0.11108	0.015106	0.39276	-0.010071	0.13062	-0.016327	-0.00946	-0.062408	-0.29984	-0.054932	-0.16556	0.04837	0.00885	-0.065765	0.023956	0.14465	-0.066681	-0.011902	0.58868	-0.012512	0.001221	-0.003815
16.718	0.015106	0.2562	-0.072327	0.023499	0.042419	-0.026245	0.3067	0.003357	-0.03006	0.03418	-0.034027	0.020294	-0.10651	0.034485	0.39642	-0.004883	-0.020905	-0.026398	-0.3566	0.007019	-0.13001	0.036163	0.013428	-0.044403	0.010529	0.20493	-0.13428	-0.001984	0.10635	0.004425	0.001068	-0.002594
16.719	0.001221	0.26627	-0.13138	0.013885	0.018463	-0.023804	0.30975	0.001984	-0.080719	0.030975	0.10422	0.011749	-0.56122	0.18799	-0.010681	-0.01236	-0.06958	-0.073395	0.12085	0.11108	-0.2533	0.064392	0.001678	-0.036926	0.04425	0.26154	0.016785	-0.005798	-0.48813	-0.024719	0.001221	-0.00061
16.72	-0.000763	0.2832	-0.1091	-0.013275	-0.014496	-0.013733	0.33493	0.005341	-0.067749	0.009155	0.074005	0.010223	-0.1915	0.17181	0.16785	-0.009155	-0.072479	0.000916	0.91019	0.14954	-0.19241	0.066071	-0.024109	-0.019989	0.032959	0.30548	0.21713	-0.011749	-0.80978	-0.037384	0	-0.010071
16.721	-0.002747	0.24429	0.055389	0.009003	-0.052948	-0.038452	0.30685	0.002289	-0.046692	-0.013733	0.17685	0.011292	0.040436	0.11475	-0.29053	0.001984	-0.064087	-0.099487	0.40848	0.24933	-0.18585	0.043488	-0.063477	-0.007019	0.019379	0.35248	0.15503	-0.008087	-0.25681	-0.050964	-0.000153	-0.003204
16.722	-0.000916	0.25238	0.10696	0.02594	-0.039673	-0.029907	0.3067	0.001831	-0.036316	-0.025024	0.18356	0.005798	-0.20767	-0.019531	-0.18585	0.005035	-0.049896	-0.11017	0.12665	0.17364	-0.17731	0.027008	-0.00824	-0.006866	0.030212	0.37415	-0.040436	-0.01236	0.36972	-0.045319	0.002441	-0.012054
16.723	-0.004425	0.25284	-0.078583	0.03067	0.05722	-0.033112	0.3093	0.006866	-0.062408	-0.0354	0.058899	0.015259	-0.22369	-0.068359	0.020905	0.003052	-0.021973	-0.085907	-0.27893	0.029144	0.17364	-0.06958	0.011139	-0.051727	0.015106	0.36255	-0.07019	-0.009308	0.43564	-0.043945	0.000458	-0.016479
16.724	-0.005798	0.2652	-0.1976	-0.00885	0.046387	0.032043	0.31082	0.004883	-0.082245	-0.034943	-0.080109	0.013733	0.068359	-0.11505	-0.22049	-0.011749	0.010376	-0.041046	-0.38879	-0.004883	0.16861	-0.16892	-0.011444	-0.034637	0.032349	0.28885	-0.000153	-0.009155	0.1387	-0.019989	-0.00351	-0.01358
16.725	0.002441	0.27069	-0.10223	-0.029907	0.028839	0.039215	0.31143	0.00412	-0.093384	-0.053864	-0.12238	0.010834	0.039063	0.048828	-0.1944	-0.012207	-0.006104	-0.051727	-0.37735	-0.024261	0.077057	-0.23911	-0.022278	-0.024872	0.041962	0.17731	0.15625	-0.010681	-0.000153	-0.007782	-0.001373	-0.011139
16.726	0.009308	0.24094	-0.038757	-0.032196	-0.009308	0.070343	0.37369	0.00412	-0.081329	-0.017395	-0.10834	0.009613	0.01236	0.066833	-0.033569	-0.004425	-0.019073	0.015106	-0.047913	0.022736	-0.21591	-0.20248	-0.071564	0.054321	0.054169	0.087585	0.21011	-0.01236	0.024872	0.00351	-0.00473	-0.016785
16.727	0.011139	0.25909	0.037231	-0.020599	-0.076904	0.009003	0.39841	0.003815	-0.084534	-0.006866	0.059662	0.006409	-0.053864	-0.016327	0.13245	-0.01709	-0.064087	0.026398	-0.15121	0.046692	-0.41245	-0.040283	-0.056763	0.06134	0.039063	0.029907	0.2005	-0.00946	-0.012207	-0.028687	-0.000305	-0.016327
16.728	0.011597	0.30258	0.032501	0.02121	0.031281	-0.059357	0.36438	0.007477	-0.088043	-0.002747	0.26566	0.011597	-0.22873	-0.073242	0.21576	-0.003204	-0.034943	0.017853	0.10757	0.019226	-0.17303	0.20401	-0.062714	0.061188	0.044403	-0.012207	0.064697	-0.01236	-0.031281	-0.056915	0.001373	-0.021515
16.729	0.020142	0.29526	-0.045624	-0.004425	0.083618	-0.092316	0.4042	0.007324	-0.08667	-0.020905	0.2713	0.014648	-0.20462	-0.068817	0.21561	0.005341	0.019684	-0.058594	0.15366	-0.013123	0.25116	0.19241	0.009308	-0.00412	0.028381	-0.040741	-0.28458	-0.007324	-0.058899	-0.042114	0	-0.016937
